#N canvas -8 -8 1366 685 10;
#X obj 433 72 openpanel;
#X obj 420 34 bng 15 250 50 0 empty empty empty 17 7 0 10 -262144 -1
-1;
#X obj 381 126 print;
#X obj 386 163 readsf~;
#X obj 367 186 dac~;
#X msg 438 104 open \$1;
#X obj 422 215 bng 15 250 50 0 empty empty empty 17 7 0 10 -262144
-1 -1;
#X msg 502 207 open C:/Users/franc/Desktop/guitarrinha.wav;
#X obj 450 134 list prepend set;
#X obj 450 163 list trim;
#X obj 564 149 bng 15 250 50 0 empty empty empty 17 7 0 10 -262144
-1 -1;
#X obj 563 174 t b b;
#X obj 251 198 line~;
#X obj 192 122 hsl 128 15 0 100 0 0 empty empty empty -2 -8 0 10 -262144
-1 -1 0 1;
#X floatatom 253 156 5 0 0 0 - - -, f 5;
#X msg 253 174 \$1 20;
#X obj 145 271 *~, f 4;
#X obj 139 306 dac~;
#X obj 95 242 osc~ 440;
#X floatatom 85 7 5 0 300 0 - - -, f 5;
#X obj 19 54 bng 15 250 50 0 empty empty empty 17 7 0 10 -262144 -1
-1;
#X obj 18 77 f 0;
#X obj 61 106 + 1;
#X obj 18 8 tgl 15 0 empty empty empty 17 7 0 10 -262144 -1 -1 0 1
;
#X floatatom 15 128 5 0 0 0 - - -, f 5;
#X msg 53 59 0;
#X obj 15 103 % 8;
#X obj 11 150 select 0 1 2 3 4 5 6 7;
#X msg 3 209 164.81;
#X msg 16 187 196;
#X msg 65 178 220;
#X msg 86 198 293.66;
#X msg 149 180 261.63;
#X msg 199 179 329.63;
#X obj 19 33 metro 100;
#X msg 338 133 stop;
#X connect 0 0 5 0;
#X connect 1 0 0 0;
#X connect 3 0 4 0;
#X connect 3 0 4 1;
#X connect 3 1 6 0;
#X connect 5 0 2 0;
#X connect 5 0 3 0;
#X connect 5 0 8 0;
#X connect 8 0 9 0;
#X connect 9 0 7 0;
#X connect 10 0 11 0;
#X connect 11 0 7 0;
#X connect 12 0 16 1;
#X connect 13 0 14 0;
#X connect 14 0 15 0;
#X connect 15 0 12 0;
#X connect 16 0 17 0;
#X connect 16 0 17 1;
#X connect 18 0 16 0;
#X connect 19 0 34 1;
#X connect 20 0 21 0;
#X connect 21 0 22 0;
#X connect 21 0 26 0;
#X connect 22 0 21 1;
#X connect 23 0 34 0;
#X connect 24 0 27 0;
#X connect 25 0 21 1;
#X connect 26 0 24 0;
#X connect 27 0 28 0;
#X connect 27 1 29 0;
#X connect 27 2 30 0;
#X connect 27 3 29 0;
#X connect 27 4 31 0;
#X connect 27 5 32 0;
#X connect 27 6 31 0;
#X connect 27 7 33 0;
#X connect 28 0 18 0;
#X connect 29 0 18 0;
#X connect 30 0 18 0;
#X connect 31 0 18 0;
#X connect 32 0 18 0;
#X connect 33 0 18 0;
#X connect 34 0 20 0;
#X connect 35 0 3 0;
